<svg width="21" height="15" viewBox="0 0 21 15" fill="none" xmlns="http://www.w3.org/2000/svg">
<g clip-path="url(#clip0_399_1989)">
<rect width="20" height="15" transform="translate(0.5)" fill="white"/>
<path fill-rule="evenodd" clip-rule="evenodd" d="M0.5 0H20.5V15H0.5V0Z" fill="#E31D1C"/>
<path fill-rule="evenodd" clip-rule="evenodd" d="M4.94621 6.09707L2.51289 8.00422L3.44206 5.12008L1.81934 3.62038L4.01659 3.53929L4.94621 1.21777L5.87582 3.53929H8.06934L6.45035 5.12008L7.18788 8.00422L4.94621 6.09707Z" fill="#FECA00"/>
<path fill-rule="evenodd" clip-rule="evenodd" d="M9.88506 3.8578L8.86399 4.47422L9.09689 3.27133L8.24658 2.37109L9.39794 2.32242L9.88506 1.19922L10.3722 2.32242H11.5216L10.6732 3.27133L10.9286 4.47422L9.88506 3.8578Z" fill="#FECA00"/>
<path fill-rule="evenodd" clip-rule="evenodd" d="M11.1351 6.3578L10.114 6.97422L10.3469 5.77133L9.49658 4.87109L10.6479 4.82242L11.1351 3.69922L11.6222 4.82242H12.7716L11.9232 5.77133L12.1786 6.97422L11.1351 6.3578Z" fill="#FECA00"/>
<path fill-rule="evenodd" clip-rule="evenodd" d="M9.88506 8.8578L8.86399 9.47422L9.09689 8.27133L8.24658 7.37109L9.39794 7.32242L9.88506 6.19922L10.3722 7.32242H11.5216L10.6732 8.27133L10.9286 9.47422L9.88506 8.8578Z" fill="#FECA00"/>
<path fill-rule="evenodd" clip-rule="evenodd" d="M7.38506 10.1078L6.36399 10.7242L6.59689 9.52133L5.74658 8.62109L6.89794 8.57242L7.38506 7.44922L7.87218 8.57242H9.02158L8.17324 9.52133L8.42864 10.7242L7.38506 10.1078Z" fill="#FECA00"/>
</g>
<defs>
<clipPath id="clip0_399_1989">
<rect width="20" height="15" fill="white" transform="translate(0.5)"/>
</clipPath>
</defs>
</svg>
