<svg width="21" height="15" viewBox="0 0 21 15" fill="none" xmlns="http://www.w3.org/2000/svg">
<path fill-rule="evenodd" clip-rule="evenodd" d="M0.5 0V15H20.5V0H0.5Z" fill="#2E42A5"/>
<mask id="mask0_411_549" style="mask-type:luminance" maskUnits="userSpaceOnUse" x="0" y="0" width="21" height="15">
<path fill-rule="evenodd" clip-rule="evenodd" d="M0.5 0V15H20.5V0H0.5Z" fill="white"/>
</mask>
<g mask="url(#mask0_411_549)">
<path d="M-1.72656 13.9288L2.67449 15.79L20.6003 2.02403L22.9217 -0.741899L18.2154 -1.364L10.9039 4.56817L5.01893 8.56507L-1.72656 13.9288Z" fill="white"/>
<path d="M-1.12402 15.2324L1.11811 16.3125L22.0881 -0.999338H18.9399L-1.12402 15.2324Z" fill="#F50100"/>
<path d="M22.7271 13.9288L18.326 15.79L0.400221 2.02403L-1.92124 -0.741899L2.78506 -1.364L10.0966 4.56817L15.9816 8.56507L22.7271 13.9288Z" fill="white"/>
<path d="M22.5767 14.8642L20.3345 15.9443L11.4053 8.53224L8.75794 7.7041L-2.14483 -0.732895H1.00339L11.9 7.50384L14.7944 8.49687L22.5767 14.8642Z" fill="#F50100"/>
<mask id="path-7-inside-1_411_549" fill="white">
<path d="M12.8613 5H21.7676V10H12.8613V16.25H8.13965V10H-0.732422V5H8.13965V-1.25H12.8613V5Z"/>
</mask>
<path d="M12.8613 5H21.7676V10H12.8613V16.25H8.13965V10H-0.732422V5H8.13965V-1.25H12.8613V5Z" fill="#F50100"/>
<path d="M12.8613 5H11.6113V6.25H12.8613V5ZM21.7676 5H23.0176V3.75H21.7676V5ZM21.7676 10V11.25H23.0176V10H21.7676ZM12.8613 10V8.75H11.6113V10H12.8613ZM12.8613 16.25V17.5H14.1113V16.25H12.8613ZM8.13965 16.25H6.88965V17.5H8.13965V16.25ZM8.13965 10H9.38965V8.75H8.13965V10ZM-0.732422 10H-1.98242V11.25H-0.732422V10ZM-0.732422 5V3.75H-1.98242V5H-0.732422ZM8.13965 5V6.25H9.38965V5H8.13965ZM8.13965 -1.25V-2.5H6.88965V-1.25H8.13965ZM12.8613 -1.25H14.1113V-2.5H12.8613V-1.25ZM12.8613 5V6.25H21.7676V5V3.75H12.8613V5ZM21.7676 5H20.5176V10H21.7676H23.0176V5H21.7676ZM21.7676 10V8.75H12.8613V10V11.25H21.7676V10ZM12.8613 10H11.6113V16.25H12.8613H14.1113V10H12.8613ZM12.8613 16.25V15H8.13965V16.25V17.5H12.8613V16.25ZM8.13965 16.25H9.38965V10H8.13965H6.88965V16.25H8.13965ZM8.13965 10V8.75H-0.732422V10V11.25H8.13965V10ZM-0.732422 10H0.517578V5H-0.732422H-1.98242V10H-0.732422ZM-0.732422 5V6.25H8.13965V5V3.75H-0.732422V5ZM8.13965 5H9.38965V-1.25H8.13965H6.88965V5H8.13965ZM8.13965 -1.25V0H12.8613V-1.25V-2.5H8.13965V-1.25ZM12.8613 -1.25H11.6113V5H12.8613H14.1113V-1.25H12.8613Z" fill="white" mask="url(#path-7-inside-1_411_549)"/>
</g>
</svg>
