<svg width="21" height="15" viewBox="0 0 21 15" fill="none" xmlns="http://www.w3.org/2000/svg">
<g clip-path="url(#clip0_399_1984)">
<rect width="20" height="15" transform="translate(0.5)" fill="white"/>
<path fill-rule="evenodd" clip-rule="evenodd" d="M0.5 0V15H20.5V0H0.5Z" fill="#FFB400"/>
<mask id="mask0_399_1984" style="mask-type:luminance" maskUnits="userSpaceOnUse" x="0" y="0" width="21" height="15">
<path fill-rule="evenodd" clip-rule="evenodd" d="M0.5 0V15H20.5V0H0.5Z" fill="white"/>
</mask>
<g mask="url(#mask0_399_1984)">
<path fill-rule="evenodd" clip-rule="evenodd" d="M0.5 0V3.75H20.5V0H0.5Z" fill="#C51918"/>
<path fill-rule="evenodd" clip-rule="evenodd" d="M0.5 11.25V15H20.5V11.25H0.5Z" fill="#C51918"/>
<rect x="3.63037" y="6.41992" width="0.7" height="3.64" fill="#F1F9FF"/>
<path d="M4.60986 6.13965H4.3999V6.41992H3.56006V6.13965H3.3501V5.79004H4.60986V6.13965Z" fill="#C88A02"/>
<path fill-rule="evenodd" clip-rule="evenodd" d="M4.4001 10.2702H4.6101V10.6202H3.3501V10.2702H3.5601V9.99023H4.4001V10.2702Z" fill="#C88A02"/>
<path fill-rule="evenodd" clip-rule="evenodd" d="M3.98023 5.85984C4.13257 5.85984 4.14805 5.80248 4.23792 5.71681C4.30771 5.65029 4.47023 5.56778 4.47023 5.47484C4.47023 5.26221 4.25085 5.08984 3.98023 5.08984C3.70961 5.08984 3.49023 5.26221 3.49023 5.47484C3.49023 5.57839 3.60216 5.64762 3.68679 5.71681C3.77595 5.78971 3.8414 5.85984 3.98023 5.85984Z" fill="#AD1619"/>
<path fill-rule="evenodd" clip-rule="evenodd" d="M3.3501 10.6201H4.6101V11.1801C4.6101 11.1801 4.4526 11.1101 4.2951 11.1101C4.1376 11.1101 3.9801 11.1801 3.9801 11.1801C3.9801 11.1801 3.8226 11.1101 3.6651 11.1101C3.5076 11.1101 3.3501 11.1801 3.3501 11.1801V10.6201Z" fill="#005BBF"/>
<mask id="mask1_399_1984" style="mask-type:luminance" maskUnits="userSpaceOnUse" x="3" y="10" width="2" height="2">
<path fill-rule="evenodd" clip-rule="evenodd" d="M3.3501 10.6201H4.6101V11.1801C4.6101 11.1801 4.4526 11.1101 4.2951 11.1101C4.1376 11.1101 3.9801 11.1801 3.9801 11.1801C3.9801 11.1801 3.8226 11.1101 3.6651 11.1101C3.5076 11.1101 3.3501 11.1801 3.3501 11.1801V10.6201Z" fill="white"/>
</mask>
<g mask="url(#mask1_399_1984)">
<path d="M3.33854 11.0697L3.31104 11.0026C3.42452 10.9521 3.53841 10.9268 3.65248 10.9268C3.72617 10.9268 3.76465 10.937 3.83007 10.9661C3.88753 10.9917 3.91732 10.9997 3.98016 10.9997C4.04301 10.9997 4.0728 10.9917 4.13026 10.9661C4.19568 10.937 4.23416 10.9268 4.30785 10.9268C4.42192 10.9268 4.53581 10.9521 4.64929 11.0026L4.62179 11.0697C4.51682 11.0229 4.41225 10.9997 4.30785 10.9997C4.24501 10.9997 4.21522 11.0076 4.15776 11.0332C4.09234 11.0623 4.05386 11.0726 3.98016 11.0726C3.90647 11.0726 3.86799 11.0623 3.80257 11.0332C3.74511 11.0076 3.71532 10.9997 3.65248 10.9997C3.54808 10.9997 3.44351 11.0229 3.33854 11.0697Z" fill="white"/>
<path d="M3.33854 10.8597L3.31104 10.7926C3.42452 10.7421 3.53841 10.7168 3.65248 10.7168C3.72617 10.7168 3.76465 10.7271 3.83007 10.7562C3.88753 10.7818 3.91732 10.7897 3.98016 10.7897C4.04301 10.7897 4.0728 10.7818 4.13026 10.7562C4.19568 10.7271 4.23416 10.7168 4.30785 10.7168C4.42192 10.7168 4.53581 10.7421 4.64929 10.7926L4.62179 10.8597C4.51682 10.813 4.41225 10.7897 4.30785 10.7897C4.24501 10.7897 4.21522 10.7977 4.15776 10.8232C4.09234 10.8524 4.05386 10.8626 3.98016 10.8626C3.90647 10.8626 3.86799 10.8524 3.80257 10.8232C3.74511 10.7977 3.71532 10.7897 3.65248 10.7897C3.54808 10.7897 3.44351 10.813 3.33854 10.8597Z" fill="white"/>
</g>
<rect x="10.4902" y="6.41992" width="0.7" height="3.64" fill="#F1F9FF"/>
<path d="M11.4702 6.13965H11.2603V6.41992H10.4204V6.13965H10.2104V5.79004H11.4702V6.13965Z" fill="#C88A02"/>
<path fill-rule="evenodd" clip-rule="evenodd" d="M11.2604 10.2702H11.4704V10.6202H10.2104V10.2702H10.4204V9.99023H11.2604V10.2702Z" fill="#C88A02"/>
<path fill-rule="evenodd" clip-rule="evenodd" d="M10.8401 5.85984C10.9924 5.85984 11.0079 5.80248 11.0978 5.71681C11.1676 5.65029 11.3301 5.56778 11.3301 5.47484C11.3301 5.26221 11.1107 5.08984 10.8401 5.08984C10.5695 5.08984 10.3501 5.26221 10.3501 5.47484C10.3501 5.57839 10.462 5.64762 10.5466 5.71681C10.6358 5.78971 10.7013 5.85984 10.8401 5.85984Z" fill="#AD1619"/>
<path fill-rule="evenodd" clip-rule="evenodd" d="M10.2104 10.6201H11.4704V11.1801C11.4704 11.1801 11.3129 11.1101 11.1554 11.1101C10.9979 11.1101 10.8404 11.1801 10.8404 11.1801C10.8404 11.1801 10.6829 11.1101 10.5254 11.1101C10.3679 11.1101 10.2104 11.1801 10.2104 11.1801V10.6201Z" fill="#005BBF"/>
<mask id="mask2_399_1984" style="mask-type:luminance" maskUnits="userSpaceOnUse" x="10" y="10" width="2" height="2">
<path fill-rule="evenodd" clip-rule="evenodd" d="M10.2104 10.6201H11.4704V11.1801C11.4704 11.1801 11.3129 11.1101 11.1554 11.1101C10.9979 11.1101 10.8404 11.1801 10.8404 11.1801C10.8404 11.1801 10.6829 11.1101 10.5254 11.1101C10.3679 11.1101 10.2104 11.1801 10.2104 11.1801V10.6201Z" fill="white"/>
</mask>
<g mask="url(#mask2_399_1984)">
<path d="M10.1989 11.0697L10.1714 11.0026C10.2849 10.9521 10.3988 10.9268 10.5128 10.9268C10.5865 10.9268 10.625 10.937 10.6904 10.9661C10.7479 10.9917 10.7777 10.9997 10.8405 10.9997C10.9034 10.9997 10.9331 10.9917 10.9906 10.9661C11.056 10.937 11.0945 10.9268 11.1682 10.9268C11.2823 10.9268 11.3962 10.9521 11.5096 11.0026L11.4821 11.0697C11.3772 11.0229 11.2726 10.9997 11.1682 10.9997C11.1054 10.9997 11.0756 11.0076 11.0181 11.0332C10.9527 11.0623 10.9142 11.0726 10.8405 11.0726C10.7668 11.0726 10.7283 11.0623 10.6629 11.0332C10.6055 11.0076 10.5757 10.9997 10.5128 10.9997C10.4084 10.9997 10.3039 11.0229 10.1989 11.0697Z" fill="white"/>
<path d="M10.1989 10.8597L10.1714 10.7926C10.2849 10.7421 10.3988 10.7168 10.5128 10.7168C10.5865 10.7168 10.625 10.7271 10.6904 10.7562C10.7479 10.7818 10.7777 10.7897 10.8405 10.7897C10.9034 10.7897 10.9331 10.7818 10.9906 10.7562C11.056 10.7271 11.0945 10.7168 11.1682 10.7168C11.2823 10.7168 11.3962 10.7421 11.5096 10.7926L11.4821 10.8597C11.3772 10.813 11.2726 10.7897 11.1682 10.7897C11.1054 10.7897 11.0756 10.7977 11.0181 10.8232C10.9527 10.8524 10.9142 10.8626 10.8405 10.8626C10.7668 10.8626 10.7283 10.8524 10.6629 10.8232C10.6055 10.7977 10.5757 10.7897 10.5128 10.7897C10.4084 10.7897 10.3039 10.813 10.1989 10.8597Z" fill="white"/>
</g>
<path d="M3.24264 7.42004C3.71153 7.09723 4.9672 7.06829 5.51803 7.35265L5.26022 7.8507C4.98982 7.7113 4.37595 7.68445 3.94576 7.75597C4.0111 7.76738 4.08438 7.77922 4.16647 7.79211C4.21761 7.80014 4.39806 7.82794 4.41256 7.83019C4.58437 7.85691 4.70165 7.89119 4.78854 7.95031C4.96587 8.07104 4.99216 8.28884 4.86568 8.44933C4.81226 8.51708 4.74188 8.56771 4.63619 8.62902C4.60235 8.64865 4.56593 8.66935 4.51705 8.69543C4.5062 8.70121 4.4221 8.7454 4.39693 8.7589C4.29624 8.81298 4.22951 8.85194 4.18014 8.88781C4.10277 8.94408 4.02313 8.99013 3.93307 9.03332C3.88565 9.05605 3.75199 9.11494 3.74654 9.1173C3.74373 9.11858 3.74038 9.12004 3.73775 9.12121C3.78627 9.18692 3.81487 9.26738 3.8149 9.36047C3.81483 9.50813 3.74362 9.6471 3.61764 9.79992L3.18795 9.44543L3.14693 9.43273L3.1235 9.25402C3.08134 8.9234 3.22305 8.74001 3.51412 8.60754C3.52231 8.60383 3.65322 8.54648 3.69088 8.52844C3.75238 8.49895 3.80371 8.47008 3.85104 8.43566C3.89768 8.40175 3.94788 8.36913 4.00826 8.3341C3.64775 8.27618 3.45266 8.23343 3.30318 8.16906C2.94545 8.01491 2.89882 7.65685 3.24264 7.42004ZM9.23873 7.35265C9.78978 7.06848 11.0444 7.09726 11.5131 7.42004C11.857 7.65685 11.8104 8.01491 11.4526 8.16906C11.3031 8.23341 11.108 8.27619 10.7475 8.3341C10.8079 8.36913 10.8581 8.40174 10.9047 8.43566C10.9521 8.4701 11.0034 8.49893 11.0649 8.52844C11.1026 8.54649 11.2342 8.60416 11.2417 8.60754C11.5328 8.74003 11.6745 8.92326 11.6323 9.25402L11.6088 9.43273L11.5678 9.44543L11.1381 9.79992C11.0121 9.64708 10.9419 9.50815 10.9419 9.36047C10.9419 9.26734 10.9695 9.18695 11.018 9.12121C11.0154 9.12004 11.0121 9.1186 11.0092 9.1173C11.0037 9.11491 10.8701 9.05602 10.8227 9.03332C10.7326 8.99012 10.653 8.94409 10.5756 8.88781C10.5263 8.85194 10.4596 8.81299 10.3588 8.7589C10.3336 8.74537 10.2493 8.70105 10.2387 8.69543C10.1898 8.66931 10.1535 8.64867 10.1196 8.62902C10.0139 8.56769 9.94354 8.5171 9.8901 8.44933C9.76357 8.28884 9.78992 8.07106 9.96725 7.95031C10.0541 7.89116 10.1714 7.85691 10.3432 7.83019C10.3577 7.82794 10.5382 7.80014 10.5893 7.79211C10.6714 7.77922 10.7447 7.76738 10.81 7.75597C10.3798 7.68445 9.76589 7.71125 9.49557 7.8507L9.23873 7.35265Z" fill="#AD1619"/>
<path d="M4.20247 7.75L4.40908 7.79274V8.1007C4.18902 8.27629 3.63037 8.57223 3.63037 8.57223V7.75H4.20247Z" fill="#F1F9FF"/>
<path d="M10.6969 7.75L10.4903 7.79274V8.1007C10.7104 8.27629 11.269 8.57223 11.269 8.57223V7.75H10.6969Z" fill="#F1F9FF"/>
<path d="M7.45703 3.81882C7.84413 3.78136 8.22661 3.84691 8.60449 4.01413C8.9985 4.01413 9.37534 4.14348 9.73535 4.40183V4.50437L9.0293 5.21335C8.88826 5.60402 8.63727 5.62488 8.44141 5.68991C8.3774 5.7112 7.47566 5.73622 7.45508 5.73679V5.73484C6.07643 5.89386 5.86816 5.2263 5.86426 5.21335L5.1582 4.50437V4.40183C5.1582 4.40183 5.69811 4.01426 6.28906 4.01413C6.28906 4.01413 6.87615 3.76091 7.45801 3.81784L7.45703 3.81882Z" fill="#AD1619"/>
<path d="M8.54395 4.68848C8.55945 4.86238 8.60658 4.94436 8.67676 4.95605C8.77261 4.97165 8.84567 4.96402 8.89648 4.93652L9 4.88086V4.97559C9.03244 4.97902 9.08802 4.97355 9.16406 4.95703L9.18555 5.05762L9.70215 4.57324L9.75 4.62402L9.1084 5.22852C9.01504 5.40047 8.96801 5.51403 8.96777 5.56152C8.96777 5.63369 8.7795 5.67671 8.41309 5.7207C8.1262 5.75514 7.7877 5.77583 7.51074 5.7793V5.78223C7.49893 5.78223 7.4867 5.78035 7.47461 5.78027C7.46309 5.78035 7.4517 5.78223 7.44043 5.78223V5.7793C7.16328 5.77585 6.82423 5.75518 6.53711 5.7207C6.17081 5.67672 5.9834 5.63368 5.9834 5.56152C5.98335 5.5514 5.97989 5.53853 5.97559 5.52246C5.94438 5.48031 5.92177 5.41725 5.90527 5.35645C5.88677 5.31855 5.86711 5.27514 5.8418 5.22852L5.69922 5.09375H5.69629V5.0918L5.2002 4.62402L5.24805 4.57324L5.71387 5.01074L5.72656 4.95703C5.80259 4.97354 5.8582 4.97903 5.89062 4.97559V4.88086L5.99414 4.93652C6.04496 4.96401 6.11804 4.97165 6.21387 4.95605C6.28401 4.94432 6.33118 4.86232 6.34668 4.68848L6.37793 4.33691L6.4834 4.67383C6.531 4.82636 6.60366 4.89355 6.70703 4.89355C6.80787 4.89354 6.84801 4.85679 6.85254 4.76367L6.86523 4.49902L6.98535 4.73535C7.02846 4.82042 7.08835 4.85938 7.17285 4.85938C7.29354 4.85916 7.37402 4.7576 7.37402 4.59961H7.5166C7.5166 4.75762 7.59704 4.8592 7.71777 4.85938C7.80228 4.85938 7.86217 4.82044 7.90527 4.73535L8.02441 4.49902L8.03711 4.76367C8.04163 4.85684 8.08269 4.89355 8.18359 4.89355C8.28697 4.89355 8.35963 4.82636 8.40723 4.67383L8.5127 4.33691L8.54395 4.68848ZM7.43652 5.41309C7.25234 5.42481 6.24352 5.49203 6.09082 5.56348C6.08874 5.56444 6.08603 5.56365 6.08398 5.56445C6.1066 5.57277 6.13723 5.583 6.17578 5.5918C6.26581 5.61232 6.39411 5.63314 6.5459 5.65137C6.84254 5.68697 7.19524 5.70813 7.47559 5.70996C7.75594 5.70811 8.10875 5.68697 8.40527 5.65137C8.55707 5.63314 8.6854 5.61233 8.77539 5.5918C8.82091 5.5814 8.8559 5.57117 8.87891 5.56152C8.88684 5.55819 8.89335 5.55536 8.89746 5.55273C8.89832 5.54032 8.90218 5.52588 8.90625 5.50977C8.87434 5.55895 8.8352 5.58781 8.7832 5.56348C8.62956 5.49185 7.61648 5.42453 7.43652 5.41309ZM8.44727 4.9043C8.39112 4.97582 8.3187 5.0167 8.23242 5.02832C8.67613 5.09052 8.99106 5.17774 9.00488 5.18164C9.00488 5.18164 8.99261 5.26339 8.96875 5.35254C8.99101 5.30536 9.01673 5.25018 9.0498 5.18945L9.05664 5.18066L9.1377 5.10254C9.02266 5.12297 8.93953 5.12276 8.89551 5.08691C8.82687 5.10682 8.74616 5.10968 8.6543 5.09473C8.55619 5.07865 8.48841 5.01262 8.44727 4.9043ZM6.44336 4.9043C6.40223 5.0126 6.33441 5.07863 6.23633 5.09473C6.14432 5.1097 6.06285 5.10691 5.99414 5.08691C5.95971 5.1149 5.90198 5.12119 5.82324 5.11328L5.88965 5.17578C5.96729 5.15492 6.25886 5.08159 6.64844 5.02734C6.56647 5.01389 6.49739 4.97313 6.44336 4.9043ZM7.93945 4.91895C7.90422 4.95 7.86333 4.97036 7.81836 4.9834C7.89213 4.98894 7.96434 4.99427 8.03418 5.00195C7.99458 4.98259 7.96221 4.95553 7.93945 4.91895ZM6.95117 4.91895C6.92918 4.95431 6.8981 4.9807 6.86035 5C6.9275 4.99282 6.99672 4.9876 7.06738 4.98242C7.02432 4.96922 6.98516 4.94889 6.95117 4.91895ZM7.44531 4.84863C7.41019 4.90326 7.36349 4.94531 7.30566 4.9707C7.33998 4.96964 7.37447 4.96816 7.40918 4.96777V4.9668H7.46582V4.96777C7.50612 4.96823 7.54617 4.96934 7.58594 4.9707C7.52772 4.94536 7.48061 4.90352 7.44531 4.84863Z" fill="#C88A02"/>
<path fill-rule="evenodd" clip-rule="evenodd" d="M7.44584 3.34187C7.56182 3.34187 7.65584 3.24785 7.65584 3.13187C7.65584 3.0159 7.56182 2.92188 7.44584 2.92188C7.32986 2.92188 7.23584 3.0159 7.23584 3.13187C7.23584 3.24785 7.32986 3.34187 7.44584 3.34187Z" fill="#005BBF"/>
<path d="M5.52949 4.74332C5.54859 4.72126 5.57399 4.7001 5.60468 4.68375C5.68989 4.63844 5.78141 4.6435 5.80878 4.69449C5.83601 4.74569 5.78865 4.82392 5.70331 4.8693C5.61804 4.91456 5.52739 4.90972 5.50019 4.85856C5.49922 4.85671 5.49902 4.85461 5.49824 4.8527C5.48952 4.86248 5.48099 4.87145 5.46894 4.87516C5.41352 4.8921 5.34587 4.83075 5.31757 4.73844C5.28931 4.64601 5.31095 4.55715 5.3664 4.5402C5.42184 4.52325 5.48949 4.58454 5.51777 4.67691C5.5247 4.6996 5.52836 4.7221 5.52949 4.74332ZM9.47577 4.51871C9.53121 4.53569 9.55286 4.62454 9.5246 4.71695C9.49632 4.80929 9.42866 4.87062 9.37324 4.85367C9.36097 4.8499 9.35177 4.84126 9.34296 4.83121C9.34218 4.8331 9.34295 4.83622 9.34199 4.83805C9.31447 4.88876 9.22387 4.89292 9.13886 4.84781C9.05352 4.80244 9.00617 4.72421 9.03339 4.67301C9.06079 4.62206 9.15231 4.61697 9.23749 4.66227C9.26847 4.67877 9.29256 4.70149 9.31171 4.72379C9.3127 4.70199 9.31726 4.67881 9.32441 4.65543C9.35269 4.56308 9.42035 4.50177 9.47577 4.51871ZM6.32929 4.25113C6.38605 4.24041 6.44655 4.30799 6.46503 4.4025C6.47175 4.43707 6.46936 4.47019 6.46406 4.49918C6.48581 4.49332 6.50996 4.49042 6.53534 4.49039C6.63187 4.49039 6.71092 4.537 6.71113 4.59488C6.71113 4.65287 6.63199 4.70035 6.53534 4.70035C6.43886 4.70024 6.36054 4.6528 6.36054 4.59488C6.36055 4.59323 6.36138 4.59164 6.36152 4.59C6.36052 4.58967 6.35958 4.5894 6.35859 4.58902C6.35878 4.59102 6.36053 4.59286 6.36054 4.59488C6.36054 4.65287 6.28237 4.70034 6.18574 4.70035C6.08909 4.70035 6.01093 4.65287 6.01093 4.59488C6.01113 4.537 6.08921 4.49039 6.18574 4.49039C6.22095 4.49039 6.25301 4.4982 6.28046 4.50895C6.27109 4.48923 6.26364 4.46655 6.25898 4.44254C6.24068 4.3478 6.27243 4.26219 6.32929 4.25113ZM8.48847 4.22574C8.54633 4.22282 8.59767 4.29824 8.60273 4.39469C8.60454 4.42957 8.59723 4.46159 8.58808 4.48941C8.61026 4.48671 8.63447 4.48694 8.65937 4.49039C8.75508 4.50384 8.82662 4.56187 8.81855 4.6193C8.81039 4.67658 8.72653 4.71169 8.63105 4.6984C8.53535 4.68495 8.46381 4.62789 8.47187 4.57047C8.47211 4.56875 8.47345 4.56726 8.47382 4.56559C8.47263 4.565 8.47109 4.56526 8.46992 4.56461C8.46982 4.56652 8.47214 4.56856 8.47187 4.57047C8.4638 4.6278 8.37989 4.66383 8.28437 4.65055C8.18866 4.6371 8.11712 4.57907 8.12519 4.52164C8.13333 4.46427 8.218 4.4291 8.31367 4.44254C8.34834 4.44747 8.37892 4.45941 8.40449 4.47379C8.39798 4.453 8.39404 4.42979 8.39277 4.40543C8.38775 4.30897 8.43058 4.22878 8.48847 4.22574ZM7.37909 4.18082C7.43596 4.16996 7.49739 4.2384 7.51581 4.33316C7.52241 4.36739 7.52003 4.4001 7.51484 4.42887C7.53649 4.42311 7.56092 4.42008 7.58613 4.42008C7.68258 4.42022 7.76093 4.46764 7.76093 4.52555C7.76054 4.58325 7.68234 4.6299 7.58613 4.63004C7.48972 4.63004 7.41074 4.58334 7.41034 4.52555C7.41034 4.52372 7.41117 4.52149 7.41132 4.51969C7.41003 4.51925 7.4087 4.51922 7.40742 4.51871C7.40765 4.52093 7.41034 4.52329 7.41034 4.52555C7.40995 4.58333 7.33195 4.63004 7.23554 4.63004C7.13921 4.62999 7.06113 4.5833 7.06074 4.52555C7.06074 4.46759 7.13897 4.42013 7.23554 4.42008C7.27101 4.42008 7.30367 4.42775 7.33124 4.43863C7.3219 4.41898 7.31346 4.39713 7.30878 4.3732C7.29034 4.27833 7.32217 4.19189 7.37909 4.18082Z" fill="#C88A02"/>
<path d="M7.5127 2.63965H7.6084V2.78613H7.5127V3.07715H7.6084V3.22363H7.27051V3.07715H7.36719V2.78613H7.27051V2.63965H7.36719V2.54785H7.5127V2.63965Z" fill="#C88A02"/>
<rect x="7.34033" y="3.33984" width="0.28" height="0.91" fill="#C88A02"/>
<path d="M6.21335 3.4921L6.21213 3.56209C5.59144 3.55126 5.2354 3.64183 5.14503 3.82237C5.05159 4.00901 5.06896 4.2359 5.19989 4.50541L5.13692 4.536C4.99724 4.24844 4.97816 3.99932 5.08243 3.79103C5.18977 3.57663 5.5664 3.48081 6.21335 3.4921Z" fill="white"/>
<path d="M6.33343 4.11321L6.29755 4.17332C6.16238 4.09261 6.09473 3.95487 6.09473 3.76506C6.09473 3.49226 6.23525 3.33229 6.5461 3.22281C6.74449 3.15295 7.01549 3.18159 7.35988 3.30645L7.33602 3.37226C7.00542 3.2524 6.74961 3.22536 6.56935 3.28884C6.28424 3.38925 6.16473 3.5253 6.16473 3.76506C6.16473 3.93163 6.22092 4.04603 6.33343 4.11321Z" fill="white"/>
<path d="M5.28812 4.39809L5.15603 4.44448C5.01898 4.05426 5.05811 3.78925 5.2923 3.67494C5.49865 3.57421 5.79939 3.53321 6.19601 3.54929L6.19035 3.68917C5.81482 3.67395 5.53545 3.71204 5.35371 3.80075C5.19981 3.87588 5.17166 4.06649 5.28812 4.39809Z" fill="#C88A02"/>
<path d="M6.83131 3.39977C6.51122 3.39977 6.37978 3.47772 6.30468 3.7079C6.25683 3.85459 6.30324 3.97979 6.45373 4.09665L6.36787 4.20723C6.17303 4.05593 6.10433 3.87063 6.17159 3.66448C6.26729 3.37114 6.45507 3.25977 6.83131 3.25977C7.07791 3.25977 7.27 3.32455 7.40376 3.4564L7.42462 3.47696V4.15194H7.28462V3.5368C7.18016 3.44607 7.0301 3.39977 6.83131 3.39977Z" fill="#C88A02"/>
<path d="M8.65628 3.56241L8.6575 3.6324C9.27819 3.62157 9.63423 3.71215 9.7246 3.89268C9.81804 4.07932 9.80066 4.30621 9.66974 4.57573L9.7327 4.60631C9.87239 4.31875 9.89147 4.06963 9.7872 3.86134C9.67986 3.64694 9.30323 3.55112 8.65628 3.56241Z" fill="white"/>
<path d="M8.43707 4.12786L8.47296 4.18796C8.60813 4.10726 8.67578 3.96952 8.67578 3.77971C8.67578 3.50691 8.53525 3.34694 8.22441 3.23746C8.02602 3.16759 7.75501 3.19624 7.41063 3.3211L7.43449 3.38691C7.76509 3.26705 8.0209 3.24001 8.20116 3.30349C8.48627 3.4039 8.60578 3.53995 8.60578 3.77971C8.60578 3.94628 8.54959 4.06068 8.43707 4.12786Z" fill="white"/>
<path d="M9.62497 4.4684L9.75706 4.51479C9.89411 4.12457 9.85497 3.85957 9.62079 3.74525C9.41443 3.64452 9.11369 3.60353 8.71707 3.6196L8.72274 3.75948C9.09826 3.74427 9.37764 3.78235 9.55937 3.87106C9.71328 3.94619 9.74143 4.13681 9.62497 4.4684Z" fill="#C88A02"/>
<path d="M8.07396 3.41051C8.39405 3.41051 8.5255 3.48847 8.60059 3.71865C8.64845 3.86533 8.60203 3.99053 8.45154 4.1074L8.53741 4.21797C8.73224 4.06667 8.80094 3.88137 8.73369 3.67522C8.63798 3.38188 8.4502 3.27051 8.07396 3.27051C7.82737 3.27051 7.63527 3.33529 7.50151 3.46714L7.48066 3.48771V4.16268H7.62066V3.54754C7.72512 3.45681 7.87517 3.41051 8.07396 3.41051Z" fill="#C88A02"/>
<path opacity="0.3" fill-rule="evenodd" clip-rule="evenodd" d="M5.17041 5.79004H9.72041V9.87806C9.72041 9.87806 9.38243 11.25 7.44541 11.25C5.50839 11.25 5.17041 9.84188 5.17041 9.84188V5.79004Z" fill="#E1E5E8"/>
<mask id="mask3_399_1984" style="mask-type:luminance" maskUnits="userSpaceOnUse" x="5" y="5" width="5" height="7">
<path fill-rule="evenodd" clip-rule="evenodd" d="M5.17041 5.79004H9.72041V9.87806C9.72041 9.87806 9.38243 11.25 7.44541 11.25C5.50839 11.25 5.17041 9.84188 5.17041 9.84188V5.79004Z" fill="white"/>
</mask>
<g mask="url(#mask3_399_1984)">
<rect x="5.17041" y="8.30957" width="2.31" height="2.73" fill="#FFC034"/>
<rect x="5.4502" y="8.4502" width="0.28" height="2.59" fill="#AD1619"/>
<rect x="6.43018" y="8.4502" width="0.28" height="2.59" fill="#AD1619"/>
<rect x="5.94043" y="8.4502" width="0.28" height="2.59" fill="#AD1619"/>
<rect x="6.92041" y="8.4502" width="0.28" height="2.59" fill="#AD1619"/>
<rect x="5.17041" y="5.71973" width="2.31" height="2.66" fill="#AD1619"/>
<rect x="7.41064" y="8.24023" width="2.31" height="2.66" fill="#AD1619"/>
<rect x="7.41064" y="5.79004" width="2.45" height="2.59" fill="#F1F9FF"/>
<path d="M6.36084 6.58105H6.50049V6.29004H6.71045V6.58105H6.92041V6.94336H6.71045V7.59668H6.92041V7.95996H5.66064V7.59668H5.87061V6.94336H5.66064V6.58105H5.80029V6.29004H6.01025V6.58105H6.15088V6H6.36084V6.58105Z" fill="#C88A02"/>
<path d="M8.39143 6.12846C8.558 6.06192 8.752 6.1316 8.91682 6.36674C9.01076 6.50086 9.0114 6.649 8.91975 6.76615C8.8735 6.82527 8.80893 6.8683 8.73127 6.90482C8.7904 6.98839 8.82609 7.03461 8.88655 7.10307C8.91484 7.13509 8.93827 7.16733 8.96077 7.19584C8.98272 7.18308 9.01089 7.17313 9.04573 7.16264C9.05123 7.16098 9.05731 7.15942 9.06331 7.15775C9.08506 7.15172 9.10124 7.14742 9.11409 7.1431C9.17155 7.12384 9.16901 7.12982 9.16877 6.96244C9.16876 6.9495 9.16878 6.9486 9.16877 6.9351C9.16877 6.89301 9.16732 6.85716 9.16389 6.77494C9.16373 6.77114 9.16402 6.77062 9.16389 6.76713C9.15131 6.46444 9.16305 6.34823 9.25569 6.26517L9.34846 6.36967C9.3037 6.41027 9.2933 6.51492 9.30354 6.76127C9.30372 6.7648 9.30436 6.76526 9.30452 6.76908C9.30803 6.8533 9.30842 6.89038 9.30842 6.9351C9.30843 6.94832 9.30841 6.94893 9.30842 6.96146C9.30871 7.18417 9.29219 7.23088 9.15803 7.27592C9.14243 7.28115 9.12425 7.28591 9.10041 7.29252C9.09552 7.29388 9.09113 7.29608 9.08674 7.2974C9.06681 7.30339 9.05248 7.30585 9.0428 7.3101C9.05599 7.33244 9.06783 7.35282 9.076 7.3726C9.1137 7.46383 9.10084 7.55014 9.03108 7.59916L9.03498 7.61478C9.04315 7.64789 9.04133 7.68167 9.0262 7.81596C9.01772 7.8913 9.01848 7.94082 9.02327 7.95463C9.01851 7.94172 9.00126 7.92816 8.97737 7.92826L8.97248 7.92435C8.96474 7.93285 8.95837 7.93826 8.95491 7.94096H8.95686C8.96094 7.93851 8.96684 7.93607 8.97541 7.93412L9.06721 8.0181C9.00841 8.08272 8.92448 8.0936 8.89143 8.00248C8.8768 7.96179 8.8766 7.89739 8.88752 7.80033C8.90029 7.68706 8.90158 7.65926 8.89924 7.64896C8.89787 7.64382 8.89655 7.63805 8.89534 7.63236C8.89024 7.60824 8.88782 7.57525 8.88752 7.52103L8.83186 7.64408C8.76984 7.61536 8.73745 7.58994 8.72932 7.54447C8.72646 7.52822 8.72804 7.51269 8.73225 7.4976C8.73417 7.49078 8.73704 7.48401 8.74006 7.47611C8.74739 7.45601 8.74548 7.44333 8.7137 7.39994C8.70622 7.38972 8.69928 7.37827 8.69123 7.36674C8.68823 7.36584 8.68537 7.36466 8.68245 7.36381C8.64949 7.35415 8.62042 7.34686 8.59748 7.34232C8.60503 7.36213 8.61406 7.38422 8.62483 7.40873C8.62703 7.41359 8.66373 7.49444 8.67268 7.51615C8.69132 7.5614 8.70199 7.59485 8.70393 7.62846C8.71219 7.77198 8.59564 7.80669 8.451 7.7642C8.34328 7.73256 8.28857 7.71982 8.27327 7.72025C8.32102 7.7189 8.34664 7.66654 8.34358 7.64701L8.13655 7.67924C8.12268 7.59008 8.1611 7.5133 8.26741 7.51029C8.30769 7.50915 8.35921 7.5198 8.45686 7.5474C8.4502 7.53224 8.44271 7.51385 8.43342 7.49271C8.41027 7.44001 8.39367 7.39777 8.38069 7.35502C8.34428 7.23487 8.40497 7.14049 8.52131 7.12846C8.52739 7.12783 8.53358 7.12868 8.53987 7.12846C8.51457 7.08609 8.48811 7.04008 8.45979 6.99076C8.44433 6.99377 8.43022 6.99849 8.41682 7.00053L8.40803 6.94584C8.34964 7.01098 8.29115 7.07206 8.23323 7.11771C8.09394 7.2274 7.96458 7.26319 7.86702 7.15385L8.02327 7.0142C8.01812 7.00869 8.01004 7.00678 8.01448 7.00541C8.03516 6.99958 8.06657 6.98164 8.10334 6.95267C8.14284 6.92155 8.18451 6.87939 8.22737 6.83353C8.16858 6.79439 8.11036 6.74124 8.05452 6.67338C8.01227 6.62203 7.97602 6.58698 7.94123 6.56303C7.92414 6.55126 7.8734 6.52451 7.86506 6.51908C7.7784 6.46086 7.78334 6.40496 7.83577 6.27299L8.03108 6.35111C8.02865 6.35721 8.02619 6.36267 8.02424 6.36771C8.03678 6.37513 8.0502 6.38317 8.06038 6.39017C8.11156 6.42543 8.16224 6.4735 8.21663 6.53959C8.2704 6.60496 8.32087 6.64754 8.36702 6.6724L8.36409 6.65385C8.37337 6.65244 8.39259 6.64979 8.4178 6.64408C8.46 6.63452 8.50198 6.62222 8.53987 6.60795C8.57907 6.59318 8.60947 6.57706 8.62776 6.564C8.58095 6.49796 8.5434 6.46611 8.51741 6.45658C8.51363 6.45522 8.51657 6.45457 8.52131 6.45267C8.52629 6.45068 8.53293 6.44778 8.54084 6.44193L8.33284 6.15971C8.34769 6.1488 8.3673 6.13812 8.39143 6.12846ZM8.97737 7.92826L8.98225 7.93217C8.97979 7.93256 8.97755 7.93363 8.97541 7.93412L8.96858 7.92826L8.96956 7.92728C8.97213 7.92696 8.97494 7.92827 8.97737 7.92826ZM8.88166 7.45365C8.88242 7.47284 8.88137 7.49144 8.87581 7.51029C8.87911 7.51199 8.8834 7.51323 8.88752 7.51517C8.88752 7.51325 8.88752 7.51129 8.88752 7.50932C8.88752 7.49261 8.88611 7.477 8.88557 7.45951C8.8849 7.45784 8.88273 7.45624 8.88166 7.45365Z" fill="#C37C9C"/>
<path d="M8.6123 6.12221L8.75566 5.96875L9.05662 6.24989L8.91327 6.40335L8.6123 6.12221Z" fill="#C88A02"/>
<path d="M9.47559 10.0869L9.47266 10.0996C9.38363 10.4687 9.08197 10.6543 8.60059 10.6543C8.11864 10.6543 7.8171 10.4634 7.72852 10.0859L7.72559 10.0742V8.55469H9.47559V10.0869ZM7.93555 10.0498C8.00272 10.3145 8.21397 10.4443 8.60059 10.4443C8.98743 10.4443 9.19866 10.3177 9.26562 10.0615V8.76465H7.93555V10.0498Z" fill="#FFC034"/>
<path d="M8.67334 9.30371L9.18018 8.75293L9.28369 8.84766L8.76416 9.41309H9.34521V9.62305H8.75342L9.28369 10.2012L9.18018 10.2959L8.67334 9.74414V10.4824H8.52686V9.6709L7.95264 10.2959L7.84912 10.2012L8.37939 9.62305H7.89795V9.41309H8.36865L7.84912 8.84766L7.95264 8.75293L8.52686 9.37695V8.68359H8.67334V9.30371Z" fill="#FFC034"/>
<path fill-rule="evenodd" clip-rule="evenodd" d="M8.92721 10.9022C8.92721 10.9022 7.44459 11.0187 7.44459 10.0625C7.44459 10.0625 7.43045 10.9022 5.88232 10.9022V11.657H8.92721V10.9022Z" fill="#F1F9FF"/>
<path fill-rule="evenodd" clip-rule="evenodd" d="M7.44541 8.87C7.73536 8.87 7.97041 8.61928 7.97041 8.31C7.97041 8.00072 7.73536 7.75 7.44541 7.75C7.15546 7.75 6.92041 8.00072 6.92041 8.31C6.92041 8.61928 7.15546 8.87 7.44541 8.87Z" fill="#005BBF" stroke="#AD1619" stroke-width="0.729167"/>
</g>
</g>
</g>
<defs>
<clipPath id="clip0_399_1984">
<rect width="20" height="15" fill="white" transform="translate(0.5)"/>
</clipPath>
</defs>
</svg>
