<svg width="25" height="24" viewBox="0 0 25 24" fill="none" xmlns="http://www.w3.org/2000/svg">
<g clip-path="url(#clip0_399_2184)">
<path d="M1.10119 11.8563C1.10063 13.8728 1.62751 15.8417 2.62937 17.5771L1.00537 23.5066L7.07346 21.9156C8.75183 22.8292 10.6323 23.308 12.5432 23.3081H12.5483C18.8566 23.3081 23.9918 18.1748 23.9945 11.8653C23.9957 8.80792 22.8061 5.93295 20.6448 3.76997C18.4839 1.60718 15.6099 0.415458 12.5478 0.414062C6.23867 0.414062 1.10388 5.54709 1.10128 11.8563" fill="url(#paint0_linear_399_2184)"/>
<path d="M0.692797 11.8527C0.692145 13.9417 1.23791 15.981 2.27549 17.7786L0.593262 23.9207L6.87894 22.2726C8.61084 23.2168 10.5608 23.7147 12.545 23.7154H12.5501C19.0848 23.7154 24.4044 18.3975 24.4072 11.8621C24.4083 8.69488 23.176 5.71656 20.9374 3.47609C18.6987 1.23591 15.7219 0.00130233 12.5501 0C6.01428 0 0.695401 5.31721 0.692797 11.8527ZM4.43615 17.469L4.20145 17.0965C3.21484 15.5277 2.6941 13.7149 2.69484 11.8534C2.69689 6.4213 7.11773 2.00186 12.5538 2.00186C15.1864 2.00298 17.6604 3.02921 19.5213 4.89116C21.382 6.7533 22.4059 9.22865 22.4053 11.8614C22.4028 17.2935 17.9819 21.7135 12.5501 21.7135H12.5462C10.7775 21.7126 9.04294 21.2376 7.53019 20.34L7.17019 20.1265L3.44015 21.1045L4.43615 17.469Z" fill="url(#paint1_linear_399_2184)"/>
<path d="M9.5863 6.89771C9.36434 6.4044 9.13076 6.39445 8.91969 6.3858C8.74686 6.37836 8.54927 6.37892 8.35188 6.37892C8.1543 6.37892 7.83327 6.45324 7.56193 6.74952C7.2903 7.04608 6.5249 7.76273 6.5249 9.22031C6.5249 10.6779 7.58658 12.0866 7.73458 12.2845C7.88276 12.482 9.78416 15.5689 12.7955 16.7564C15.2982 17.7433 15.8075 17.547 16.3507 17.4975C16.8939 17.4482 18.1036 16.7811 18.3504 16.0892C18.5974 15.3975 18.5974 14.8046 18.5233 14.6807C18.4493 14.5572 18.2517 14.4831 17.9554 14.335C17.6591 14.1869 16.2025 13.4701 15.9309 13.3712C15.6593 13.2724 15.4618 13.2231 15.2643 13.5198C15.0667 13.8159 14.4993 14.4831 14.3264 14.6807C14.1536 14.8787 13.9807 14.9034 13.6845 14.7552C13.3881 14.6065 12.4339 14.2941 11.3019 13.2849C10.4212 12.4996 9.82658 11.5298 9.65374 11.2331C9.4809 10.937 9.63523 10.7764 9.78379 10.6288C9.9169 10.496 10.0802 10.2828 10.2284 10.1099C10.3762 9.93687 10.4255 9.81343 10.5243 9.61585C10.6231 9.41808 10.5736 9.24506 10.4997 9.09687C10.4255 8.94868 9.84974 7.48347 9.5863 6.89771Z" fill="white"/>
</g>
<defs>
<linearGradient id="paint0_linear_399_2184" x1="1150.46" y1="2309.67" x2="1150.46" y2="0.414062" gradientUnits="userSpaceOnUse">
<stop stop-color="#1FAF38"/>
<stop offset="1" stop-color="#60D669"/>
</linearGradient>
<linearGradient id="paint1_linear_399_2184" x1="1191.29" y1="2392.07" x2="1191.29" y2="0" gradientUnits="userSpaceOnUse">
<stop stop-color="#F9F9F9"/>
<stop offset="1" stop-color="white"/>
</linearGradient>
<clipPath id="clip0_399_2184">
<rect width="23.814" height="24" fill="white" transform="translate(0.593262)"/>
</clipPath>
</defs>
</svg>
