<svg width="20" height="16" viewBox="0 0 20 16" fill="none" xmlns="http://www.w3.org/2000/svg">
<g clip-path="url(#clip0_399_1860)">
<path d="M19.7477 8.0101C17.6082 7.47751 15.4283 7.12262 13.2303 6.94906L11.9853 2.90202C11.9644 2.83388 11.9221 2.77426 11.8647 2.7319C11.8074 2.68955 11.738 2.66669 11.6667 2.66668H11.6297C11.3963 2.66668 11.1629 2.6701 10.9297 2.6771L10.3234 0.252308C10.3053 0.180245 10.2636 0.116288 10.205 0.0705834C10.1465 0.0248787 10.0743 4.32935e-05 10 1.67442e-05H9.93733C6.43688 -0.00487656 3.01896 1.06285 0.14375 3.05943C0.0994114 3.09005 0.0631665 3.13097 0.038128 3.17868C0.0130895 3.22639 5.65411e-06 3.27947 0 3.33335L0 15.3334C0 15.4218 0.035119 15.5065 0.0976311 15.5691C0.160143 15.6316 0.244928 15.6667 0.333333 15.6667H19.6667C19.7551 15.6667 19.8399 15.6316 19.9024 15.5691C19.9649 15.5065 20 15.4218 20 15.3334V8.33335C20 8.25906 19.9752 8.18689 19.9295 8.12833C19.8837 8.06976 19.8198 8.02815 19.7477 8.0101ZM19.3333 11.6088C13.1533 10.5837 6.84667 10.5837 0.666667 11.6088V8.59772L1.04 8.51081C7.06102 7.11302 13.3254 7.14175 19.3333 8.59472V11.6088ZM12.5169 6.89668C8.61456 6.6521 4.69737 6.97708 0.888667 7.86139L0.666667 7.91343V5.87597C4.01761 4.23908 7.69155 3.37043 11.4207 3.33335L12.5169 6.89668ZM9.74008 0.666683L10.2493 2.70477C6.92806 2.8887 3.67388 3.71436 0.666667 5.1361V3.50898C3.34575 1.68973 6.50188 0.701055 9.74008 0.666683ZM0.666667 15V12.2837C6.84571 11.2471 13.1543 11.2471 19.3333 12.2837V15H0.666667Z" fill="#2D5DFA"/>
<path d="M1.3335 8.99967H2.00016V10.6663H1.3335V8.99967ZM3.00016 8.66634H3.66683V10.6663H3.00016V8.66634ZM4.66683 8.33301H5.3335V10.333H4.66683V8.33301ZM7.00016 7.99967H7.66683V10.333H7.00016V7.99967ZM18.0002 8.99967H18.6668V10.6663H18.0002V8.99967ZM16.3335 8.66634H17.0002V10.6663H16.3335V8.66634ZM14.6668 8.33301H15.3335V10.333H14.6668V8.33301ZM12.3335 7.99967H13.0002V10.333H12.3335V7.99967ZM9.66683 7.99967H10.3335V10.333H9.66683V7.99967ZM1.3335 12.9997H2.00016V14.333H1.3335V12.9997ZM3.00016 12.6663H3.66683V14.333H3.00016V12.6663ZM4.66683 12.333H5.3335V14.333H4.66683V12.333ZM7.00016 11.9997H7.66683V14.333H7.00016V11.9997ZM18.0002 12.9997H18.6668V14.333H18.0002V12.9997ZM16.3335 12.6663H17.0002V14.333H16.3335V12.6663ZM14.6668 12.333H15.3335V14.333H14.6668V12.333ZM12.3335 11.9997H13.0002V14.333H12.3335V11.9997ZM9.66683 11.9997H10.3335V14.333H9.66683V11.9997ZM1.3335 5.99967H2.00016V6.99967H1.3335V5.99967ZM3.00016 5.33301H3.66683V6.66634H3.00016V5.33301ZM4.66683 4.66634H5.3335V6.33301H4.66683V4.66634ZM7.00016 4.33301H7.66683V6.33301H7.00016V4.33301ZM9.66683 3.99967H10.3335V6.33301H9.66683V3.99967ZM1.3335 3.33301H2.00016V3.99967H1.3335V3.33301ZM3.3335 2.33301H4.00016V3.33301H3.3335V2.33301ZM5.3335 1.66634H6.00016V2.66634H5.3335V1.66634ZM7.3335 1.33301H8.00016V2.33301H7.3335V1.33301Z" fill="#2D5DFA"/>
</g>
<defs>
<clipPath id="clip0_399_1860">
<rect width="20" height="16" fill="white"/>
</clipPath>
</defs>
</svg>
