<svg width="10" height="14" viewBox="0 0 10 14" fill="none" xmlns="http://www.w3.org/2000/svg">
<path d="M3.5 12.25C3.5 12.5467 3.41203 12.8367 3.24721 13.0834C3.08238 13.33 2.84811 13.5223 2.57403 13.6358C2.29994 13.7494 1.99834 13.7791 1.70737 13.7212C1.41639 13.6633 1.14912 13.5204 0.939341 13.3107C0.729562 13.1009 0.586701 12.8336 0.528823 12.5426C0.470945 12.2517 0.50065 11.9501 0.614181 11.676C0.727713 11.4019 0.919972 11.1676 1.16665 11.0028C1.41332 10.838 1.70333 10.75 2 10.75C2.39783 10.75 2.77936 10.908 3.06066 11.1893C3.34197 11.4706 3.5 11.8522 3.5 12.25ZM2 5.5C1.70333 5.5 1.41332 5.58797 1.16665 5.7528C0.919972 5.91762 0.727713 6.15189 0.614181 6.42598C0.50065 6.70006 0.470945 7.00166 0.528823 7.29264C0.586701 7.58361 0.729562 7.85088 0.939341 8.06066C1.14912 8.27044 1.41639 8.4133 1.70737 8.47118C1.99834 8.52906 2.29994 8.49935 2.57403 8.38582C2.84811 8.27229 3.08238 8.08003 3.24721 7.83336C3.41203 7.58668 3.5 7.29667 3.5 7C3.5 6.60218 3.34197 6.22064 3.06066 5.93934C2.77936 5.65804 2.39783 5.5 2 5.5ZM2 0.25C1.70333 0.25 1.41332 0.337973 1.16665 0.502796C0.919972 0.667618 0.727713 0.901886 0.614181 1.17597C0.50065 1.45006 0.470945 1.75166 0.528823 2.04264C0.586701 2.33361 0.729562 2.60088 0.939341 2.81066C1.14912 3.02044 1.41639 3.1633 1.70737 3.22118C1.99834 3.27906 2.29994 3.24935 2.57403 3.13582C2.84811 3.02229 3.08238 2.83003 3.24721 2.58336C3.41203 2.33668 3.5 2.04667 3.5 1.75C3.5 1.35218 3.34197 0.970644 3.06066 0.68934C2.77936 0.408035 2.39783 0.25 2 0.25ZM8 10.75C7.70333 10.75 7.41332 10.838 7.16665 11.0028C6.91997 11.1676 6.72771 11.4019 6.61418 11.676C6.50065 11.9501 6.47094 12.2517 6.52882 12.5426C6.5867 12.8336 6.72956 13.1009 6.93934 13.3107C7.14912 13.5204 7.41639 13.6633 7.70737 13.7212C7.99834 13.7791 8.29994 13.7494 8.57403 13.6358C8.84812 13.5223 9.08238 13.33 9.24721 13.0834C9.41203 12.8367 9.5 12.5467 9.5 12.25C9.5 11.8522 9.34197 11.4706 9.06066 11.1893C8.77936 10.908 8.39783 10.75 8 10.75ZM8 5.5C7.70333 5.5 7.41332 5.58797 7.16665 5.7528C6.91997 5.91762 6.72771 6.15189 6.61418 6.42598C6.50065 6.70006 6.47094 7.00166 6.52882 7.29264C6.5867 7.58361 6.72956 7.85088 6.93934 8.06066C7.14912 8.27044 7.41639 8.4133 7.70737 8.47118C7.99834 8.52906 8.29994 8.49935 8.57403 8.38582C8.84812 8.27229 9.08238 8.08003 9.24721 7.83336C9.41203 7.58668 9.5 7.29667 9.5 7C9.5 6.60218 9.34197 6.22064 9.06066 5.93934C8.77936 5.65804 8.39783 5.5 8 5.5ZM8 0.25C7.70333 0.25 7.41332 0.337973 7.16665 0.502796C6.91997 0.667618 6.72771 0.901886 6.61418 1.17597C6.50065 1.45006 6.47094 1.75166 6.52882 2.04264C6.5867 2.33361 6.72956 2.60088 6.93934 2.81066C7.14912 3.02044 7.41639 3.1633 7.70737 3.22118C7.99834 3.27906 8.29994 3.24935 8.57403 3.13582C8.84812 3.02229 9.08238 2.83003 9.24721 2.58336C9.41203 2.33668 9.5 2.04667 9.5 1.75C9.5 1.35218 9.34197 0.970644 9.06066 0.68934C8.77936 0.408035 8.39783 0.25 8 0.25Z" fill="#0C0020"/>
</svg>
