<svg width="13" height="14" viewBox="0 0 13 14" fill="none" xmlns="http://www.w3.org/2000/svg">
<path d="M3.375 3.875V1.375C3.375 1.20924 3.44085 1.05027 3.55806 0.933058C3.67527 0.815848 3.83424 0.75 4 0.75H12.125C12.2908 0.75 12.4497 0.815848 12.5669 0.933058C12.6842 1.05027 12.75 1.20924 12.75 1.375V9.5C12.75 9.66576 12.6842 9.82473 12.5669 9.94194C12.4497 10.0592 12.2908 10.125 12.125 10.125H9.625V12.6206C9.625 12.9681 9.34438 13.25 8.99563 13.25H0.879375C0.796701 13.2501 0.714823 13.2339 0.638427 13.2023C0.56203 13.1707 0.492616 13.1243 0.434157 13.0658C0.375697 13.0074 0.329341 12.938 0.297741 12.8616C0.266141 12.7852 0.249918 12.7033 0.25 12.6206L0.251875 4.50437C0.251875 4.15687 0.5325 3.875 0.88125 3.875H3.375ZM4.625 3.875H8.99563C9.34313 3.875 9.625 4.15562 9.625 4.50437V8.875H11.5V2H4.625V3.875ZM1.50188 5.125L1.5 12H8.375V5.125H1.50188Z" fill="#5550FF"/>
</svg>
