<svg width="21" height="15" viewBox="0 0 21 15" fill="none" xmlns="http://www.w3.org/2000/svg">
<g clip-path="url(#clip0_399_1990)">
<rect width="20" height="15" transform="translate(0.5)" fill="white"/>
<path fill-rule="evenodd" clip-rule="evenodd" d="M5.5 0H20.5V15H5.5V0Z" fill="#EF0000"/>
<path fill-rule="evenodd" clip-rule="evenodd" d="M0.5 0H8V15H0.5V0Z" fill="#2F8D00"/>
<mask id="mask0_399_1990" style="mask-type:luminance" maskUnits="userSpaceOnUse" x="3" y="2" width="10" height="11">
<path fill-rule="evenodd" clip-rule="evenodd" d="M7.94057 12.3792C5.27777 12.3792 3.11914 10.1945 3.11914 7.49964C3.11914 4.80475 5.27777 2.62012 7.94057 2.62012C10.6034 2.62012 12.762 4.80475 12.762 7.49964C12.762 10.1945 10.6034 12.3792 7.94057 12.3792Z" fill="white"/>
</mask>
<g mask="url(#mask0_399_1990)">
<path fill-rule="evenodd" clip-rule="evenodd" d="M7.64307 2.5H8.26807V4.18675H7.64307V2.5Z" fill="#FFE017"/>
<path fill-rule="evenodd" clip-rule="evenodd" d="M7.64307 10.9336H8.26807V12.4999H7.64307V10.9336Z" fill="#FFE017"/>
<path d="M3.19671 7.75203L3.02197 7.30372C4.95021 6.53392 6.40556 6.03748 7.39306 5.81374C8.84188 5.48549 10.4338 5.24262 12.1689 5.08496L12.2115 5.56496C10.4963 5.72081 8.92478 5.96056 7.49709 6.28403C6.53899 6.5011 5.10385 6.99065 3.19671 7.75203Z" fill="#FFE017"/>
<path d="M12.4632 4.78944L12.3214 5.24951C10.8641 4.78944 9.67694 4.59168 8.76443 4.65293L8.73291 4.17206C9.71265 4.10629 10.9546 4.31319 12.4632 4.78944Z" fill="#FFE017"/>
<path d="M12.9673 7.36233L12.6979 7.75973C11.955 7.24394 11.0397 6.98486 9.9458 6.98486V6.50293C11.1317 6.50293 12.1409 6.78861 12.9673 7.36233Z" fill="#FFE017"/>
<path d="M12.5639 7.50586L12.687 7.9714C11.0854 8.40524 9.58167 8.65138 8.17576 8.70934C6.76016 8.7677 5.11025 8.52068 3.22461 7.97015L3.3566 7.50711C5.19641 8.04425 6.79681 8.28386 8.15638 8.22781C9.52564 8.17136 10.9949 7.93087 12.5639 7.50586Z" fill="#FFE017"/>
<path d="M12.3826 9.77221L11.6299 10.5439C10.1994 9.11478 8.94011 8.09293 7.85964 7.47895C6.76069 6.85447 5.32757 6.22037 3.5625 5.57918L3.92447 4.55859C5.7416 5.21869 7.22743 5.87612 8.38419 6.53345C9.55942 7.20128 10.8896 8.28065 12.3826 9.77221Z" fill="#FFE017"/>
<path d="M3.91138 10.209L3.62646 9.8228C3.66625 9.79273 3.73724 9.74259 3.83506 9.67905C3.99656 9.57413 4.17589 9.46938 4.36884 9.3715C4.90029 9.10191 5.43337 8.93359 5.94182 8.91813C5.96669 8.91737 5.99145 8.91699 6.0161 8.91699V9.39892C5.99624 9.39892 5.97625 9.39923 5.95612 9.39984C5.52764 9.41287 5.0571 9.56144 4.58223 9.80233C4.40523 9.89212 4.24031 9.98845 4.0923 10.0846C4.04078 10.1181 3.99519 10.149 3.95613 10.1766C3.93336 10.1927 3.91825 10.2038 3.91138 10.209Z" fill="#FFE017"/>
<path d="M4.13281 10.3758L4.25273 9.9094C5.84031 10.3275 7.06423 10.5358 7.91841 10.5358C8.7694 10.5358 10.036 10.2901 11.71 9.79688L11.8431 10.2596C10.1295 10.7645 8.82403 11.0178 7.91841 11.0178C7.01599 11.0178 5.75616 10.8033 4.13281 10.3758Z" fill="#FFE017"/>
<path d="M3.51416 6.05902L4.26858 5.28906L5.37316 6.39759L4.61874 7.16755L3.51416 6.05902Z" fill="#FFE017"/>
<path d="M9.77246 9.90419L10.3336 8.98047L12.0859 10.0708L11.5247 10.9945L9.77246 9.90419Z" fill="#FFE017"/>
</g>
<path d="M7.94043 2.62012C10.6032 2.62012 12.7617 4.80512 12.7617 7.5C12.7615 10.1947 10.6031 12.3789 7.94043 12.3789C5.27781 12.3788 3.11934 10.1947 3.11914 7.5C3.11914 4.80516 5.27769 2.62019 7.94043 2.62012ZM8 3.34277C5.69896 3.34282 3.83317 5.23083 3.83301 7.55957C3.83301 9.88845 5.69886 11.7763 8 11.7764C10.3012 11.7764 12.167 9.88848 12.167 7.55957C12.1668 5.2308 10.3011 3.34277 8 3.34277Z" fill="#F9E813"/>
<path d="M5.28516 4.49023V8.40318C5.54274 9.95198 6.41053 10.7264 7.88852 10.7264C9.36652 10.7264 10.2343 9.95198 10.4919 8.40318V4.49023H5.28516Z" fill="white"/>
<path d="M4.92822 4.12891H10.8492V8.4335L10.8443 8.46329C10.5583 10.1831 9.54429 11.0879 7.88873 11.0879C6.23318 11.0879 5.2192 10.1831 4.93318 8.46329L4.92822 8.4335V4.12891Z" fill="#C51918"/>
<path d="M6.28271 5.44336H9.49504V8.21892C9.49504 8.21892 9.25667 9.65223 7.88888 9.65223C6.52109 9.65223 6.28271 8.21892 6.28271 8.21892V5.44336Z" fill="#F7FCFF"/>
<path fill-rule="evenodd" clip-rule="evenodd" d="M5.5 4.42773H5.95181V4.72894H5.5V4.42773Z" fill="#F9E813"/>
<path fill-rule="evenodd" clip-rule="evenodd" d="M5.26172 4.54785H6.09505V4.69845H5.26172V4.54785Z" fill="#1E1B1B"/>
<path fill-rule="evenodd" clip-rule="evenodd" d="M5.26172 4.66895H5.71353V4.81955H5.26172V4.66895Z" fill="#F9E813"/>
<path fill-rule="evenodd" clip-rule="evenodd" d="M5.73779 4.66895H6.1896V4.81955H5.73779V4.66895Z" fill="#F9E813"/>
<path fill-rule="evenodd" clip-rule="evenodd" d="M5.26172 5.03027H5.56292V5.48208H5.26172V5.03027Z" fill="#F9E813"/>
<path fill-rule="evenodd" clip-rule="evenodd" d="M5.85693 5.03027H6.15814V5.48208H5.85693V5.03027Z" fill="#F9E813"/>
<path fill-rule="evenodd" clip-rule="evenodd" d="M5.61865 5.03027H5.76925V5.48208H5.61865V5.03027Z" fill="#F9E813"/>
<path fill-rule="evenodd" clip-rule="evenodd" d="M5.26172 4.90918H6.09505V5.05978H5.26172V4.90918Z" fill="#1E1B1B"/>
<path fill-rule="evenodd" clip-rule="evenodd" d="M5.26172 5.27148H6.09505V5.42209H5.26172V5.27148Z" fill="#1E1B1B"/>
<path fill-rule="evenodd" clip-rule="evenodd" d="M5.38086 4.78906H5.53146V4.93966H5.38086V4.78906Z" fill="#F9E813"/>
<path fill-rule="evenodd" clip-rule="evenodd" d="M5.85693 4.78906H6.00754V4.93966H5.85693V4.78906Z" fill="#F9E813"/>
<path fill-rule="evenodd" clip-rule="evenodd" d="M5.61865 4.66895H5.76925V4.97015H5.61865V4.66895Z" fill="#F9E813"/>
<path fill-rule="evenodd" clip-rule="evenodd" d="M7.76172 4.42773H8.21353V4.72894H7.76172V4.42773Z" fill="#F9E813"/>
<path fill-rule="evenodd" clip-rule="evenodd" d="M7.52344 4.54785H8.35677V4.69845H7.52344V4.54785Z" fill="#1E1B1B"/>
<path fill-rule="evenodd" clip-rule="evenodd" d="M7.52344 4.66895H7.97524V4.81955H7.52344V4.66895Z" fill="#F9E813"/>
<path fill-rule="evenodd" clip-rule="evenodd" d="M7.99951 4.66895H8.45132V4.81955H7.99951V4.66895Z" fill="#F9E813"/>
<path fill-rule="evenodd" clip-rule="evenodd" d="M7.52344 5.03027H7.82464V5.48208H7.52344V5.03027Z" fill="#F9E813"/>
<path fill-rule="evenodd" clip-rule="evenodd" d="M8.11865 5.03027H8.41986V5.48208H8.11865V5.03027Z" fill="#F9E813"/>
<path fill-rule="evenodd" clip-rule="evenodd" d="M7.88037 5.03027H8.03097V5.48208H7.88037V5.03027Z" fill="#F9E813"/>
<path fill-rule="evenodd" clip-rule="evenodd" d="M7.52344 4.90918H8.35677V5.05978H7.52344V4.90918Z" fill="#1E1B1B"/>
<path fill-rule="evenodd" clip-rule="evenodd" d="M7.52344 5.27148H8.35677V5.42209H7.52344V5.27148Z" fill="#1E1B1B"/>
<path fill-rule="evenodd" clip-rule="evenodd" d="M7.64258 4.78906H7.79318V4.93966H7.64258V4.78906Z" fill="#F9E813"/>
<path fill-rule="evenodd" clip-rule="evenodd" d="M8.11865 4.78906H8.26925V4.93966H8.11865V4.78906Z" fill="#F9E813"/>
<path fill-rule="evenodd" clip-rule="evenodd" d="M7.88037 4.66895H8.03097V4.97015H7.88037V4.66895Z" fill="#F9E813"/>
<path fill-rule="evenodd" clip-rule="evenodd" d="M9.90479 4.42773H10.3566V4.72894H9.90479V4.42773Z" fill="#F9E813"/>
<path fill-rule="evenodd" clip-rule="evenodd" d="M9.6665 4.54785H10.4998V4.69845H9.6665V4.54785Z" fill="#1E1B1B"/>
<path fill-rule="evenodd" clip-rule="evenodd" d="M9.6665 4.66895H10.1183V4.81955H9.6665V4.66895Z" fill="#F9E813"/>
<path fill-rule="evenodd" clip-rule="evenodd" d="M10.1426 4.66895H10.5944V4.81955H10.1426V4.66895Z" fill="#F9E813"/>
<path fill-rule="evenodd" clip-rule="evenodd" d="M9.6665 5.03027H9.96771V5.48208H9.6665V5.03027Z" fill="#F9E813"/>
<path fill-rule="evenodd" clip-rule="evenodd" d="M10.2617 5.03027H10.5629V5.48208H10.2617V5.03027Z" fill="#F9E813"/>
<path fill-rule="evenodd" clip-rule="evenodd" d="M10.0234 5.03027H10.174V5.48208H10.0234V5.03027Z" fill="#F9E813"/>
<path fill-rule="evenodd" clip-rule="evenodd" d="M9.6665 4.90918H10.4998V5.05978H9.6665V4.90918Z" fill="#1E1B1B"/>
<path fill-rule="evenodd" clip-rule="evenodd" d="M9.6665 5.27148H10.4998V5.42209H9.6665V5.27148Z" fill="#1E1B1B"/>
<path fill-rule="evenodd" clip-rule="evenodd" d="M9.78564 4.78906H9.93625V4.93966H9.78564V4.78906Z" fill="#F9E813"/>
<path fill-rule="evenodd" clip-rule="evenodd" d="M10.2617 4.78906H10.4123V4.93966H10.2617V4.78906Z" fill="#F9E813"/>
<path fill-rule="evenodd" clip-rule="evenodd" d="M10.0234 4.66895H10.174V4.97015H10.0234V4.66895Z" fill="#F9E813"/>
<path fill-rule="evenodd" clip-rule="evenodd" d="M9.90479 6.59668H10.3566V6.89788H9.90479V6.59668Z" fill="#F9E813"/>
<path fill-rule="evenodd" clip-rule="evenodd" d="M9.6665 6.7168H10.4998V6.8674H9.6665V6.7168Z" fill="#1E1B1B"/>
<path fill-rule="evenodd" clip-rule="evenodd" d="M9.6665 6.83789H10.1183V6.98849H9.6665V6.83789Z" fill="#F9E813"/>
<path fill-rule="evenodd" clip-rule="evenodd" d="M10.1426 6.83789H10.5944V6.98849H10.1426V6.83789Z" fill="#F9E813"/>
<path fill-rule="evenodd" clip-rule="evenodd" d="M9.6665 7.19922H9.96771V7.65103H9.6665V7.19922Z" fill="#F9E813"/>
<path fill-rule="evenodd" clip-rule="evenodd" d="M10.2617 7.19922H10.5629V7.65103H10.2617V7.19922Z" fill="#F9E813"/>
<path fill-rule="evenodd" clip-rule="evenodd" d="M10.0234 7.19922H10.174V7.65103H10.0234V7.19922Z" fill="#F9E813"/>
<path fill-rule="evenodd" clip-rule="evenodd" d="M9.6665 7.07812H10.4998V7.22873H9.6665V7.07812Z" fill="#1E1B1B"/>
<path fill-rule="evenodd" clip-rule="evenodd" d="M9.6665 7.44043H10.4998V7.59103H9.6665V7.44043Z" fill="#1E1B1B"/>
<path fill-rule="evenodd" clip-rule="evenodd" d="M9.78564 6.95801H9.93625V7.10861H9.78564V6.95801Z" fill="#F9E813"/>
<path fill-rule="evenodd" clip-rule="evenodd" d="M10.2617 6.95801H10.4123V7.10861H10.2617V6.95801Z" fill="#F9E813"/>
<path fill-rule="evenodd" clip-rule="evenodd" d="M10.0234 6.83789H10.174V7.1391H10.0234V6.83789Z" fill="#F9E813"/>
<path fill-rule="evenodd" clip-rule="evenodd" d="M5.5 6.59668H5.95181V6.89788H5.5V6.59668Z" fill="#F9E813"/>
<path fill-rule="evenodd" clip-rule="evenodd" d="M5.26172 6.7168H6.09505V6.8674H5.26172V6.7168Z" fill="#1E1B1B"/>
<path fill-rule="evenodd" clip-rule="evenodd" d="M5.26172 6.83789H5.71353V6.98849H5.26172V6.83789Z" fill="#F9E813"/>
<path fill-rule="evenodd" clip-rule="evenodd" d="M5.73779 6.83789H6.1896V6.98849H5.73779V6.83789Z" fill="#F9E813"/>
<path fill-rule="evenodd" clip-rule="evenodd" d="M5.26172 7.19922H5.56292V7.65103H5.26172V7.19922Z" fill="#F9E813"/>
<path fill-rule="evenodd" clip-rule="evenodd" d="M5.85693 7.19922H6.15814V7.65103H5.85693V7.19922Z" fill="#F9E813"/>
<path fill-rule="evenodd" clip-rule="evenodd" d="M5.61865 7.19922H5.76925V7.65103H5.61865V7.19922Z" fill="#F9E813"/>
<path fill-rule="evenodd" clip-rule="evenodd" d="M5.26172 7.07812H6.09505V7.22873H5.26172V7.07812Z" fill="#1E1B1B"/>
<path fill-rule="evenodd" clip-rule="evenodd" d="M5.26172 7.44043H6.09505V7.59103H5.26172V7.44043Z" fill="#1E1B1B"/>
<path fill-rule="evenodd" clip-rule="evenodd" d="M5.38086 6.95801H5.53146V7.10861H5.38086V6.95801Z" fill="#F9E813"/>
<path fill-rule="evenodd" clip-rule="evenodd" d="M5.85693 6.95801H6.00754V7.10861H5.85693V6.95801Z" fill="#F9E813"/>
<path fill-rule="evenodd" clip-rule="evenodd" d="M5.61865 6.83789H5.76925V7.1391H5.61865V6.83789Z" fill="#F9E813"/>
<path fill-rule="evenodd" clip-rule="evenodd" d="M5.78955 9.31445L6.07997 8.96835L6.3107 9.16196L6.02029 9.50806L5.78955 9.31445Z" fill="#F9E813"/>
<path fill-rule="evenodd" clip-rule="evenodd" d="M5.729 9.57422L6.26466 8.93585L6.38003 9.03265L5.84437 9.67102L5.729 9.57422Z" fill="#1E1B1B"/>
<path fill-rule="evenodd" clip-rule="evenodd" d="M5.82129 9.65234L6.11171 9.30624L6.22707 9.40304L5.93666 9.74915L5.82129 9.65234Z" fill="#F9E813"/>
<path fill-rule="evenodd" clip-rule="evenodd" d="M6.12744 9.28711L6.41786 8.941L6.53323 9.03781L6.24281 9.38391L6.12744 9.28711Z" fill="#F9E813"/>
<path fill-rule="evenodd" clip-rule="evenodd" d="M6.09814 9.88477L6.29176 9.65403L6.63786 9.94445L6.44425 10.1752L6.09814 9.88477Z" fill="#F9E813"/>
<path fill-rule="evenodd" clip-rule="evenodd" d="M6.48096 9.42871L6.67457 9.19797L7.02067 9.48839L6.82706 9.71913L6.48096 9.42871Z" fill="#F9E813"/>
<path fill-rule="evenodd" clip-rule="evenodd" d="M6.32764 9.61035L6.42444 9.49498L6.77055 9.7854L6.67374 9.90077L6.32764 9.61035Z" fill="#F9E813"/>
<path fill-rule="evenodd" clip-rule="evenodd" d="M6.00586 9.80664L6.54152 9.16827L6.65688 9.26508L6.12123 9.90345L6.00586 9.80664Z" fill="#1E1B1B"/>
<path fill-rule="evenodd" clip-rule="evenodd" d="M6.28271 10.0391L6.81837 9.40069L6.93374 9.4975L6.39808 10.1359L6.28271 10.0391Z" fill="#1E1B1B"/>
<path fill-rule="evenodd" clip-rule="evenodd" d="M5.99023 9.63867L6.08704 9.5233L6.20241 9.62011L6.1056 9.73548L5.99023 9.63867Z" fill="#F9E813"/>
<path fill-rule="evenodd" clip-rule="evenodd" d="M6.29639 9.27344L6.39319 9.15807L6.50856 9.25487L6.41175 9.37024L6.29639 9.27344Z" fill="#F9E813"/>
<path fill-rule="evenodd" clip-rule="evenodd" d="M6.05078 9.37793L6.14759 9.26256L6.37832 9.45617L6.28152 9.57154L6.05078 9.37793Z" fill="#F9E813"/>
<path fill-rule="evenodd" clip-rule="evenodd" d="M9.86133 9.04199L10.1517 9.3881L9.92101 9.58171L9.63059 9.2356L9.86133 9.04199Z" fill="#F9E813"/>
<path fill-rule="evenodd" clip-rule="evenodd" d="M9.61621 8.93652L10.1519 9.57489L10.0365 9.6717L9.50084 9.03333L9.61621 8.93652Z" fill="#1E1B1B"/>
<path fill-rule="evenodd" clip-rule="evenodd" d="M9.52393 9.01465L9.81434 9.36075L9.69897 9.45756L9.40856 9.11145L9.52393 9.01465Z" fill="#F9E813"/>
<path fill-rule="evenodd" clip-rule="evenodd" d="M9.83008 9.37891L10.1205 9.72501L10.0051 9.82182L9.71471 9.47571L9.83008 9.37891Z" fill="#F9E813"/>
<path fill-rule="evenodd" clip-rule="evenodd" d="M9.24707 9.24707L9.44068 9.47781L9.09458 9.76822L8.90097 9.53749L9.24707 9.24707Z" fill="#F9E813"/>
<path fill-rule="evenodd" clip-rule="evenodd" d="M9.62939 9.70215L9.82301 9.93288L9.4769 10.2233L9.28329 9.99256L9.62939 9.70215Z" fill="#F9E813"/>
<path fill-rule="evenodd" clip-rule="evenodd" d="M9.47656 9.52051L9.57337 9.63588L9.22726 9.92629L9.13046 9.81092L9.47656 9.52051Z" fill="#F9E813"/>
<path fill-rule="evenodd" clip-rule="evenodd" d="M9.33936 9.16895L9.87501 9.80732L9.75964 9.90412L9.22399 9.26575L9.33936 9.16895Z" fill="#1E1B1B"/>
<path fill-rule="evenodd" clip-rule="evenodd" d="M9.0625 9.40137L9.59816 10.0397L9.48279 10.1365L8.94713 9.49817L9.0625 9.40137Z" fill="#1E1B1B"/>
<path fill-rule="evenodd" clip-rule="evenodd" d="M9.5083 9.18262L9.60511 9.29799L9.48974 9.39479L9.39293 9.27942L9.5083 9.18262Z" fill="#F9E813"/>
<path fill-rule="evenodd" clip-rule="evenodd" d="M9.81445 9.54785L9.91126 9.66322L9.79589 9.76003L9.69908 9.64466L9.81445 9.54785Z" fill="#F9E813"/>
<path fill-rule="evenodd" clip-rule="evenodd" d="M9.75342 9.28809L9.85022 9.40345L9.61949 9.59706L9.52268 9.4817L9.75342 9.28809Z" fill="#F9E813"/>
<path d="M8.34912 6.35352C8.34912 6.35352 8.28795 6.66378 7.93701 6.66406C7.58564 6.66406 7.52393 6.35352 7.52393 6.35352V5.75293H8.34912V6.35352ZM7.76221 6.35547C7.69654 6.35547 7.64319 6.40915 7.64307 6.47559C7.64307 6.54213 7.69646 6.59668 7.76221 6.59668C7.82787 6.59658 7.88135 6.54206 7.88135 6.47559C7.88122 6.40922 7.82779 6.35557 7.76221 6.35547ZM8.11963 6.35547C8.05396 6.35547 8.00061 6.40915 8.00049 6.47559C8.00049 6.54213 8.05388 6.59668 8.11963 6.59668C8.18516 6.59643 8.23779 6.54197 8.23779 6.47559C8.23767 6.40931 8.18509 6.35572 8.11963 6.35547ZM7.94092 6.11426C7.87533 6.11426 7.82203 6.16806 7.82178 6.23438C7.82178 6.30092 7.87517 6.35547 7.94092 6.35547C8.00652 6.35529 8.06006 6.30081 8.06006 6.23438C8.0598 6.16817 8.00636 6.11443 7.94092 6.11426ZM7.76221 5.87305C7.69646 5.87305 7.64307 5.9276 7.64307 5.99414C7.6432 6.06057 7.69654 6.11426 7.76221 6.11426C7.82779 6.11416 7.88122 6.0605 7.88135 5.99414C7.88135 5.92766 7.82787 5.87315 7.76221 5.87305ZM8.11963 5.87305C8.05388 5.87305 8.00049 5.9276 8.00049 5.99414C8.00062 6.06057 8.05396 6.11426 8.11963 6.11426C8.18508 6.114 8.23766 6.06041 8.23779 5.99414C8.23779 5.92776 8.18516 5.8733 8.11963 5.87305Z" fill="#013399"/>
<path d="M8.34912 7.67871C8.34912 7.67871 8.28795 7.98897 7.93701 7.98926C7.58564 7.98926 7.52393 7.67871 7.52393 7.67871V7.07812H8.34912V7.67871ZM7.76221 7.68066C7.69654 7.68066 7.64319 7.73435 7.64307 7.80078C7.64307 7.86732 7.69646 7.92188 7.76221 7.92188C7.82787 7.92177 7.88135 7.86726 7.88135 7.80078C7.88122 7.73441 7.82779 7.68077 7.76221 7.68066ZM8.11963 7.68066C8.05396 7.68066 8.00061 7.73435 8.00049 7.80078C8.00049 7.86732 8.05388 7.92188 8.11963 7.92188C8.18516 7.92162 8.23779 7.86717 8.23779 7.80078C8.23767 7.73451 8.18509 7.68092 8.11963 7.68066ZM7.94092 7.43945C7.87533 7.43945 7.82203 7.49325 7.82178 7.55957C7.82178 7.62611 7.87517 7.68066 7.94092 7.68066C8.00652 7.68049 8.06006 7.626 8.06006 7.55957C8.0598 7.49336 8.00636 7.43963 7.94092 7.43945ZM7.76221 7.19824C7.69646 7.19824 7.64307 7.2528 7.64307 7.31934C7.6432 7.38576 7.69654 7.43945 7.76221 7.43945C7.82779 7.43935 7.88122 7.3857 7.88135 7.31934C7.88135 7.25286 7.82787 7.19834 7.76221 7.19824ZM8.11963 7.19824C8.05388 7.19824 8.00049 7.2528 8.00049 7.31934C8.00062 7.38576 8.05396 7.43945 8.11963 7.43945C8.18508 7.4392 8.23766 7.38561 8.23779 7.31934C8.23779 7.25295 8.18516 7.1985 8.11963 7.19824Z" fill="#013399"/>
<path d="M9.42041 7.67871C9.42041 7.67871 9.35924 7.98897 9.0083 7.98926C8.65693 7.98926 8.59521 7.67871 8.59521 7.67871V7.07812H9.42041V7.67871ZM8.8335 7.68066C8.76783 7.68066 8.71448 7.73435 8.71436 7.80078C8.71436 7.86732 8.76775 7.92188 8.8335 7.92188C8.89916 7.92177 8.95264 7.86726 8.95264 7.80078C8.95251 7.73441 8.89908 7.68077 8.8335 7.68066ZM9.19092 7.68066C9.12525 7.68066 9.0719 7.73435 9.07178 7.80078C9.07178 7.86732 9.12517 7.92188 9.19092 7.92188C9.25645 7.92162 9.30908 7.86717 9.30908 7.80078C9.30896 7.73451 9.25637 7.68092 9.19092 7.68066ZM9.01221 7.43945C8.94662 7.43945 8.89332 7.49325 8.89307 7.55957C8.89307 7.62611 8.94646 7.68066 9.01221 7.68066C9.07781 7.68049 9.13135 7.626 9.13135 7.55957C9.13109 7.49336 9.07765 7.43963 9.01221 7.43945ZM8.8335 7.19824C8.76775 7.19824 8.71436 7.2528 8.71436 7.31934C8.71449 7.38576 8.76783 7.43945 8.8335 7.43945C8.89908 7.43935 8.95251 7.3857 8.95264 7.31934C8.95264 7.25286 8.89916 7.19834 8.8335 7.19824ZM9.19092 7.19824C9.12517 7.19824 9.07178 7.2528 9.07178 7.31934C9.07191 7.38576 9.12525 7.43945 9.19092 7.43945C9.25637 7.4392 9.30895 7.38561 9.30908 7.31934C9.30908 7.25295 9.25645 7.1985 9.19092 7.19824Z" fill="#013399"/>
<path d="M7.27734 7.67871C7.27734 7.67871 7.21618 7.98897 6.86523 7.98926C6.51387 7.98926 6.45215 7.67871 6.45215 7.67871V7.07812H7.27734V7.67871ZM6.69043 7.68066C6.62476 7.68066 6.57141 7.73435 6.57129 7.80078C6.57129 7.86732 6.62468 7.92188 6.69043 7.92188C6.75609 7.92177 6.80957 7.86726 6.80957 7.80078C6.80945 7.73441 6.75601 7.68077 6.69043 7.68066ZM7.04785 7.68066C6.98218 7.68066 6.92884 7.73435 6.92871 7.80078C6.92871 7.86732 6.9821 7.92188 7.04785 7.92188C7.11339 7.92162 7.16602 7.86717 7.16602 7.80078C7.16589 7.73451 7.11331 7.68092 7.04785 7.68066ZM6.86914 7.43945C6.80355 7.43945 6.75026 7.49325 6.75 7.55957C6.75 7.62611 6.80339 7.68066 6.86914 7.68066C6.93474 7.68049 6.98828 7.626 6.98828 7.55957C6.98803 7.49336 6.93458 7.43963 6.86914 7.43945ZM6.69043 7.19824C6.62468 7.19824 6.57129 7.2528 6.57129 7.31934C6.57142 7.38576 6.62476 7.43945 6.69043 7.43945C6.75601 7.43935 6.80944 7.3857 6.80957 7.31934C6.80957 7.25286 6.75609 7.19834 6.69043 7.19824ZM7.04785 7.19824C6.9821 7.19824 6.92871 7.2528 6.92871 7.31934C6.92884 7.38576 6.98219 7.43945 7.04785 7.43945C7.1133 7.4392 7.16588 7.38561 7.16602 7.31934C7.16602 7.25295 7.11339 7.1985 7.04785 7.19824Z" fill="#013399"/>
<path d="M8.34912 9.00391C8.34912 9.00391 8.28795 9.31417 7.93701 9.31445C7.58564 9.31445 7.52393 9.00391 7.52393 9.00391V8.40332H8.34912V9.00391ZM7.76221 9.00586C7.69654 9.00586 7.64319 9.05954 7.64307 9.12598C7.64307 9.19252 7.69646 9.24707 7.76221 9.24707C7.82787 9.24697 7.88135 9.19245 7.88135 9.12598C7.88122 9.05961 7.82779 9.00596 7.76221 9.00586ZM8.11963 9.00586C8.05396 9.00586 8.00061 9.05954 8.00049 9.12598C8.00049 9.19252 8.05388 9.24707 8.11963 9.24707C8.18516 9.24682 8.23779 9.19236 8.23779 9.12598C8.23767 9.0597 8.18509 9.00611 8.11963 9.00586ZM7.94092 8.76465C7.87533 8.76465 7.82203 8.81845 7.82178 8.88477C7.82178 8.95131 7.87517 9.00586 7.94092 9.00586C8.00652 9.00568 8.06006 8.9512 8.06006 8.88477C8.0598 8.81856 8.00636 8.76483 7.94092 8.76465ZM7.76221 8.52344C7.69646 8.52344 7.64307 8.57799 7.64307 8.64453C7.6432 8.71096 7.69654 8.76465 7.76221 8.76465C7.82779 8.76455 7.88122 8.7109 7.88135 8.64453C7.88135 8.57805 7.82787 8.52354 7.76221 8.52344ZM8.11963 8.52344C8.05388 8.52344 8.00049 8.57799 8.00049 8.64453C8.00062 8.71096 8.05396 8.76465 8.11963 8.76465C8.18508 8.76439 8.23766 8.7108 8.23779 8.64453C8.23779 8.57815 8.18516 8.52369 8.11963 8.52344Z" fill="#013399"/>
</g>
<defs>
<clipPath id="clip0_399_1990">
<rect width="20" height="15" fill="white" transform="translate(0.5)"/>
</clipPath>
</defs>
</svg>
